<svg xmlns="http://www.w3.org/2000/svg" viewBox="0 0 24 24" width="26" height="26" fill="none">
  <defs>
    <linearGradient id="aiGrad" x1="0%" y1="0%" x2="100%" y2="100%">
      <stop offset="0%" stop-color="#c084fc"/>
      <stop offset="100%" stop-color="#a855f7"/>
    </linearGradient>
  </defs>
  <path d="M9.5 2a3.5 3.5 0 0 0-3.5 3.5v.2A4 4 0 0 0 3 9.5a4 4 0 0 0 1 2.65A4 4 0 0 0 3 14.5 4 4 0 0 0 7 18.5h.5A3.5 3.5 0 0 0 11 22h1a3.5 3.5 0 0 0 3.5-3.5h.5a4 4 0 0 0 4-4 4 4 0 0 0-1-2.35A4 4 0 0 0 21 9.5a4 4 0 0 0-3-3.8V5.5A3.5 3.5 0 0 0 14.5 2h-5Z" fill="url(#aiGrad)" fill-opacity="0.2" stroke="#c084fc" stroke-width="1.75" stroke-linecap="round" stroke-linejoin="round"/>
  <path d="M12 4v16" stroke="#c084fc" stroke-width="1.5" stroke-dasharray="2 2" stroke-linecap="round"/>
  <circle cx="8" cy="9" r="1.25" fill="#c084fc"/>
  <circle cx="16" cy="9" r="1.25" fill="#c084fc"/>
  <circle cx="7" cy="14" r="1.25" fill="#c084fc"/>
  <circle cx="17" cy="14" r="1.25" fill="#c084fc"/>
  <path d="M8 9l4 2 4-2" stroke="#c084fc" stroke-width="1.25" stroke-linecap="round"/>
  <path d="M7 14l5-3 5 3" stroke="#c084fc" stroke-width="1.25" stroke-linecap="round"/>
</svg>
